<svg fill="none" height="24" viewBox="0 0 24 24" width="24" xmlns="http://www.w3.org/2000/svg"><g stroke="#2a353d" stroke-linejoin="round" stroke-width="1.5"><path d="m8.5 14.5h7m-7-5h3.5" stroke-linecap="round"/><path d="m14.1706 20.8905c4.183-.278 7.515-3.6573 7.7892-7.8996.0536-.8302.0536-1.69 0-2.5202-.2742-4.24232-3.6062-7.62157-7.7892-7.89963-1.4271-.09486-2.917-.09466-4.3412 0-4.18301.27806-7.51499 3.65731-7.78916 7.89963-.05365.8302-.05365 1.69 0 2.5202.09986 1.5451.78319 2.9757 1.58767 4.1837.4671.8457.15883 1.9012-.3277 2.8232-.3508.6648-.5262.9972-.38537 1.2373.14084.2401.45542.2478 1.08459.2631 1.24424.0303 2.08325-.3225 2.74925-.8136.37772-.2785.56659-.4178.69676-.4338.13016-.016.38633.0895.89857.3005.46039.1896.99495.3066 1.48539.3392 1.4242.0947 2.9141.0949 4.3412 0z"/></g></svg>